<svg width="80" height="107" viewBox="0 0 80 107" fill="none" xmlns="http://www.w3.org/2000/svg">
<path d="M24 0.799805H56C68.813 0.799805 79.2002 11.187 79.2002 24V56C79.2002 68.813 68.813 79.2002 56 79.2002H24C11.187 79.2002 0.799805 68.813 0.799805 56V24C0.799805 11.187 11.187 0.799805 24 0.799805Z" stroke="#F1F1F1" stroke-width="1.6"/>
<path d="M33.0572 47.6435L33.0339 41.8844L38.5478 39.8389L32.9949 38.0203L32.8786 32.3461L29.5101 36.9242L24 35.2255L27.1985 40.0313L24.0765 44.846L29.5148 43.0436L33.0572 47.6435Z" fill="black"/>
<path d="M33.7458 53.6972H43.6221L56 40.0084L43.5624 26.3029H33.7814L45.414 39.9882L33.7458 53.6972Z" fill="black"/>
<path d="M6.518 101.114C6.518 100.162 6.73733 99.308 7.176 98.552C7.624 97.796 8.226 97.208 8.982 96.788C9.74733 96.3587 10.5827 96.144 11.488 96.144C12.524 96.144 13.4433 96.4007 14.246 96.914C15.058 97.418 15.646 98.1367 16.01 99.07H14.092C13.84 98.5567 13.49 98.174 13.042 97.922C12.594 97.67 12.076 97.544 11.488 97.544C10.844 97.544 10.27 97.6887 9.766 97.978C9.262 98.2673 8.86533 98.6827 8.576 99.224C8.296 99.7653 8.156 100.395 8.156 101.114C8.156 101.833 8.296 102.463 8.576 103.004C8.86533 103.545 9.262 103.965 9.766 104.264C10.27 104.553 10.844 104.698 11.488 104.698C12.076 104.698 12.594 104.572 13.042 104.32C13.49 104.068 13.84 103.685 14.092 103.172H16.01C15.646 104.105 15.058 104.824 14.246 105.328C13.4433 105.832 12.524 106.084 11.488 106.084C10.5733 106.084 9.738 105.874 8.982 105.454C8.226 105.025 7.624 104.432 7.176 103.676C6.73733 102.92 6.518 102.066 6.518 101.114ZM21.2241 106.126C20.4961 106.126 19.8381 105.963 19.2501 105.636C18.6621 105.3 18.2001 104.833 17.8641 104.236C17.5281 103.629 17.3601 102.929 17.3601 102.136C17.3601 101.352 17.5328 100.657 17.8781 100.05C18.2235 99.4433 18.6948 98.9767 19.2921 98.65C19.8895 98.3233 20.5568 98.16 21.2941 98.16C22.0315 98.16 22.6988 98.3233 23.2961 98.65C23.8935 98.9767 24.3648 99.4433 24.7101 100.05C25.0555 100.657 25.2281 101.352 25.2281 102.136C25.2281 102.92 25.0508 103.615 24.6961 104.222C24.3415 104.829 23.8561 105.3 23.2401 105.636C22.6335 105.963 21.9615 106.126 21.2241 106.126ZM21.2241 104.74C21.6348 104.74 22.0175 104.642 22.3721 104.446C22.7361 104.25 23.0301 103.956 23.2541 103.564C23.4781 103.172 23.5901 102.696 23.5901 102.136C23.5901 101.576 23.4828 101.105 23.2681 100.722C23.0535 100.33 22.7688 100.036 22.4141 99.84C22.0595 99.644 21.6768 99.546 21.2661 99.546C20.8555 99.546 20.4728 99.644 20.1181 99.84C19.7728 100.036 19.4975 100.33 19.2921 100.722C19.0868 101.105 18.9841 101.576 18.9841 102.136C18.9841 102.967 19.1941 103.611 19.6141 104.068C20.0435 104.516 20.5801 104.74 21.2241 104.74ZM30.6979 98.16C31.3045 98.16 31.8459 98.286 32.3219 98.538C32.8072 98.79 33.1852 99.1633 33.4559 99.658C33.7265 100.153 33.8619 100.75 33.8619 101.45V106H32.2799V101.688C32.2799 100.997 32.1072 100.47 31.7619 100.106C31.4165 99.7327 30.9452 99.546 30.3479 99.546C29.7505 99.546 29.2745 99.7327 28.9199 100.106C28.5745 100.47 28.4019 100.997 28.4019 101.688V106H26.8059V98.286H28.4019V99.168C28.6632 98.8507 28.9945 98.6033 29.3959 98.426C29.8065 98.2487 30.2405 98.16 30.6979 98.16ZM38.8797 104.572L41.0637 98.286H42.7577L39.8177 106H37.9137L34.9877 98.286H36.6957L38.8797 104.572ZM51.0341 101.954C51.0341 102.243 51.0154 102.505 50.9781 102.738H45.0841C45.1307 103.354 45.3594 103.849 45.7701 104.222C46.1807 104.595 46.6847 104.782 47.2821 104.782C48.1407 104.782 48.7474 104.423 49.1021 103.704H50.8241C50.5907 104.413 50.1661 104.997 49.5501 105.454C48.9434 105.902 48.1874 106.126 47.2821 106.126C46.5447 106.126 45.8821 105.963 45.2941 105.636C44.7154 105.3 44.2581 104.833 43.9221 104.236C43.5954 103.629 43.4321 102.929 43.4321 102.136C43.4321 101.343 43.5907 100.647 43.9081 100.05C44.2347 99.4433 44.6874 98.9767 45.2661 98.65C45.8541 98.3233 46.5261 98.16 47.2821 98.16C48.0101 98.16 48.6587 98.3187 49.2281 98.636C49.7974 98.9533 50.2407 99.4013 50.5581 99.98C50.8754 100.549 51.0341 101.207 51.0341 101.954ZM49.3681 101.45C49.3587 100.862 49.1487 100.391 48.7381 100.036C48.3274 99.6813 47.8187 99.504 47.2121 99.504C46.6614 99.504 46.1901 99.6813 45.7981 100.036C45.4061 100.381 45.1727 100.853 45.0981 101.45H49.3681ZM54.2007 99.406C54.434 99.014 54.742 98.7107 55.1247 98.496C55.5167 98.272 55.9787 98.16 56.5107 98.16V99.812H56.1047C55.4794 99.812 55.0034 99.9707 54.6767 100.288C54.3594 100.605 54.2007 101.156 54.2007 101.94V106H52.6047V98.286H54.2007V99.406ZM60.7777 106.126C60.1711 106.126 59.6251 106.019 59.1397 105.804C58.6637 105.58 58.2857 105.281 58.0057 104.908C57.7257 104.525 57.5764 104.101 57.5577 103.634H59.2097C59.2377 103.961 59.3917 104.236 59.6717 104.46C59.9611 104.675 60.3204 104.782 60.7497 104.782C61.1977 104.782 61.5431 104.698 61.7857 104.53C62.0377 104.353 62.1637 104.129 62.1637 103.858C62.1637 103.569 62.0237 103.354 61.7437 103.214C61.4731 103.074 61.0391 102.92 60.4417 102.752C59.8631 102.593 59.3917 102.439 59.0277 102.29C58.6637 102.141 58.3464 101.912 58.0757 101.604C57.8144 101.296 57.6837 100.89 57.6837 100.386C57.6837 99.9753 57.8051 99.602 58.0477 99.266C58.2904 98.9207 58.6357 98.65 59.0837 98.454C59.5411 98.258 60.0637 98.16 60.6517 98.16C61.5291 98.16 62.2337 98.384 62.7657 98.832C63.3071 99.2707 63.5964 99.8727 63.6337 100.638H62.0377C62.0097 100.293 61.8697 100.017 61.6177 99.812C61.3657 99.6067 61.0251 99.504 60.5957 99.504C60.1757 99.504 59.8537 99.5833 59.6297 99.742C59.4057 99.9007 59.2937 100.111 59.2937 100.372C59.2937 100.577 59.3684 100.75 59.5177 100.89C59.6671 101.03 59.8491 101.142 60.0637 101.226C60.2784 101.301 60.5957 101.399 61.0157 101.52C61.5757 101.669 62.0331 101.823 62.3877 101.982C62.7517 102.131 63.0644 102.355 63.3257 102.654C63.5871 102.953 63.7224 103.349 63.7317 103.844C63.7317 104.283 63.6104 104.675 63.3677 105.02C63.1251 105.365 62.7797 105.636 62.3317 105.832C61.8931 106.028 61.3751 106.126 60.7777 106.126ZM72.5263 101.954C72.5263 102.243 72.5076 102.505 72.4703 102.738H66.5763C66.6229 103.354 66.8516 103.849 67.2623 104.222C67.6729 104.595 68.1769 104.782 68.7743 104.782C69.6329 104.782 70.2396 104.423 70.5943 103.704H72.3162C72.0829 104.413 71.6583 104.997 71.0423 105.454C70.4356 105.902 69.6796 106.126 68.7743 106.126C68.0369 106.126 67.3743 105.963 66.7863 105.636C66.2076 105.3 65.7503 104.833 65.4143 104.236C65.0876 103.629 64.9243 102.929 64.9243 102.136C64.9243 101.343 65.0829 100.647 65.4003 100.05C65.7269 99.4433 66.1796 98.9767 66.7583 98.65C67.3463 98.3233 68.0183 98.16 68.7743 98.16C69.5023 98.16 70.1509 98.3187 70.7203 98.636C71.2896 98.9533 71.7329 99.4013 72.0503 99.98C72.3676 100.549 72.5263 101.207 72.5263 101.954ZM70.8603 101.45C70.8509 100.862 70.6409 100.391 70.2303 100.036C69.8196 99.6813 69.3109 99.504 68.7043 99.504C68.1536 99.504 67.6823 99.6813 67.2903 100.036C66.8983 100.381 66.6649 100.853 66.5903 101.45H70.8603Z" fill="black"/>
</svg>
