<svg width="92" height="24" viewBox="0 0 92 24" fill="none" xmlns="http://www.w3.org/2000/svg">
<path d="M1.05843 24V0.118229H10.6111V4.77245H5.86191V8.57182H10.3669V13.1718H5.86191V24H1.05843ZM11.2624 24L13.5692 0.118229H21.67L23.936 24H19.4175L19.0783 20.1463H16.2016L15.9031 24H11.2624ZM16.5408 16.3334H18.7119L17.6671 4.18898H17.45L16.5408 16.3334ZM25.1844 24V0.118229H29.7979V24H25.1844ZM31.6976 24V0.118229H39.025C40.2462 0.118229 41.1689 0.398659 41.7931 0.959518C42.4173 1.51133 42.8334 2.2893 43.0414 3.29342C43.2585 4.28849 43.3671 5.45996 43.3671 6.80783C43.3671 8.11047 43.1997 9.15077 42.865 9.92874C42.5394 10.7067 41.9197 11.2449 41.0061 11.5435C41.7569 11.6973 42.2816 12.0727 42.5801 12.6697C42.8877 13.2577 43.0414 14.0221 43.0414 14.9629V24H38.3329V14.6508C38.3329 13.9543 38.1882 13.5246 37.8987 13.3617C37.6183 13.1899 37.1615 13.1039 36.5282 13.1039V24H31.6976ZM36.5554 8.96533H37.7088C38.3691 8.96533 38.6993 8.24616 38.6993 6.80783C38.6993 5.87608 38.6269 5.26547 38.4822 4.97599C38.3375 4.68652 38.0661 4.54178 37.668 4.54178H36.5554V8.96533ZM44.9411 24V0.118229H54.4938V4.77245H49.7446V8.57182H54.2496V13.1718H49.7446V24H44.9411ZM55.1451 24L57.4519 0.118229H65.5527L67.8187 24H63.3002L62.961 20.1463H60.0843L59.7858 24H55.1451ZM60.4235 16.3334H62.5946L61.5498 4.18898H61.3327L60.4235 16.3334ZM68.5922 24L71.1568 11.3399L69.1214 0.10466H73.7892L75.024 8.31401L76.1231 0.10466H80.8044L78.7691 11.3399L81.3201 24H76.4894L74.9833 14.6644L73.4364 24H68.5922Z" fill="black"/>
<path d="M87.9668 0C88.6422 0 89.2457 0.149481 89.7772 0.448443C90.3197 0.747405 90.7405 1.16817 91.0395 1.71073C91.3384 2.24221 91.4879 2.85121 91.4879 3.53772C91.4879 4.21315 91.3384 4.81661 91.0395 5.3481C90.7405 5.87958 90.3197 6.30035 89.7772 6.61038C89.2457 6.90934 88.6422 7.05882 87.9668 7.05882C87.2914 7.05882 86.6824 6.90934 86.1398 6.61038C85.6083 6.30035 85.1876 5.87958 84.8775 5.3481C84.5786 4.81661 84.4291 4.21315 84.4291 3.53772C84.4291 2.85121 84.5786 2.24221 84.8775 1.71073C85.1876 1.16817 85.6083 0.747405 86.1398 0.448443C86.6824 0.149481 87.2914 0 87.9668 0ZM87.9668 6.21176C88.764 6.21176 89.4007 5.96817 89.8768 5.48097C90.364 4.9827 90.6076 4.33495 90.6076 3.53772C90.6076 2.72941 90.364 2.08166 89.8768 1.59446C89.4007 1.09619 88.764 0.847059 87.9668 0.847059C87.1696 0.847059 86.5329 1.09619 86.0568 1.59446C85.5806 2.08166 85.3426 2.72941 85.3426 3.53772C85.3426 4.34602 85.5806 4.99377 86.0568 5.48097C86.5329 5.96817 87.1696 6.21176 87.9668 6.21176ZM89.528 2.87336C89.528 3.11696 89.4671 3.32734 89.3453 3.5045C89.2346 3.68166 89.0741 3.81453 88.8637 3.90311L89.7273 5.26505H88.4318L87.7177 4.01938H87.618V5.26505H86.5052V1.71073H88.2491C88.6367 1.71073 88.9467 1.82145 89.1793 2.04291C89.4118 2.25329 89.528 2.5301 89.528 2.87336ZM87.6014 3.18893H88.1329C88.2104 3.18893 88.2768 3.16678 88.3322 3.12249C88.3876 3.0782 88.4152 3.01176 88.4152 2.92318C88.4152 2.75709 88.3211 2.67405 88.1329 2.67405H87.6014V3.18893Z" fill="black"/>
</svg>
