<svg width="80" height="107" viewBox="0 0 80 107" fill="none" xmlns="http://www.w3.org/2000/svg">
<path d="M24 0.799805H56C68.813 0.799805 79.2002 11.187 79.2002 24V56C79.2002 68.813 68.813 79.2002 56 79.2002H24C11.187 79.2002 0.799805 68.813 0.799805 56V24C0.799805 11.187 11.187 0.799805 24 0.799805Z" stroke="#F1F1F1" stroke-width="1.6"/>
<g clip-path="url(#clip0_356_5336)">
<path d="M54.3587 46.3318L49.6176 33.2786L49.6144 33.27H49.5208L48.5445 35.9524L46.7671 40.8357L46.763 40.8318C46.147 40.2883 45.2779 39.9485 44.1834 39.822L43.8495 39.7875L44.1807 39.745C45.9857 39.4207 47.199 38.2807 47.199 36.9073C47.199 35.0239 45.4276 33.7093 42.8902 33.7093H37.6106V33.8047H39.1447V43.5365L35.4189 33.2786L35.4157 33.27H35.3221L34.3458 35.9524L30.5802 46.2982L30.557 46.3009C30.4926 46.3088 30.429 46.3151 30.366 46.3199C30.2713 46.3273 30.1771 46.3318 30.0827 46.3318H26.2778L33.5103 33.8047L33.564 33.7105H24.7185V37.5857H24.8123C24.829 35.6982 25.9283 33.8047 28.357 33.8047H31.2871L24 46.4256H33.8171V42.7129H33.7232C33.7105 44.3581 32.7778 45.9207 30.7498 46.2735L30.6853 46.2845L32.2298 42.0392H36.5565L38.1156 46.3318H36.5776V46.4256H42.6139V46.3318H41.0694V39.8567H42.8515C44.6651 39.8567 45.7053 40.667 45.7053 42.079V43.2276C45.7053 43.3541 45.7139 43.5392 45.7234 43.6939V43.6996L44.7655 46.3312H43.5142V46.425H46.1045V46.3312H44.8665L45.7389 43.9348C45.7406 43.958 45.7415 43.9719 45.7415 43.9719L45.7656 44.1879L45.7888 44.3307C45.9343 45.2144 46.2723 45.8639 46.793 46.2614L46.8678 46.3157C47.2635 46.5908 47.755 46.7301 48.3298 46.7301C49.091 46.7301 49.5986 46.5403 50.0177 46.0935L49.9628 46.0419C49.5767 46.3983 49.2526 46.5426 48.8466 46.5426C48.1548 46.5426 47.7928 45.7036 47.7928 44.8761V43.2668C47.7964 42.8675 47.7339 42.4703 47.6077 42.0915L47.5905 42.0416V42.0398H50.7552L52.3143 46.3323H50.7763V46.4262H56V46.3323L54.3587 46.3318ZM32.2643 41.9454L34.3957 36.0896L36.5223 41.9454H32.2643ZM41.0703 39.7626V33.8047H42.4307C44.2478 33.8047 45.2072 34.8849 45.2072 36.9275C45.2072 39.0999 44.6565 39.7626 42.8515 39.7626H41.0703ZM47.5537 41.9454L47.5444 41.9222C47.4038 41.5797 47.1991 41.2672 46.9412 41.0014L46.8521 40.9123L46.8426 40.9034L48.5932 36.0896L50.7199 41.9454H47.5537Z" fill="black"/>
</g>
<path d="M26.09 104.614H30.612V106H24.2V104.754L28.708 97.656H24.2V96.27H30.612V97.516L26.09 104.614ZM31.8246 102.108C31.8246 101.333 31.9833 100.647 32.3006 100.05C32.6273 99.4527 33.066 98.9907 33.6166 98.664C34.1766 98.328 34.7926 98.16 35.4646 98.16C36.0713 98.16 36.5986 98.2813 37.0466 98.524C37.504 98.7573 37.868 99.0513 38.1386 99.406V98.286H39.7486V106H38.1386V104.852C37.868 105.216 37.4993 105.519 37.0326 105.762C36.566 106.005 36.034 106.126 35.4366 106.126C34.774 106.126 34.1673 105.958 33.6166 105.622C33.066 105.277 32.6273 104.801 32.3006 104.194C31.9833 103.578 31.8246 102.883 31.8246 102.108ZM38.1386 102.136C38.1386 101.604 38.0266 101.142 37.8026 100.75C37.588 100.358 37.3033 100.059 36.9486 99.854C36.594 99.6487 36.2113 99.546 35.8006 99.546C35.39 99.546 35.0073 99.6487 34.6526 99.854C34.298 100.05 34.0086 100.344 33.7846 100.736C33.57 101.119 33.4626 101.576 33.4626 102.108C33.4626 102.64 33.57 103.107 33.7846 103.508C34.0086 103.909 34.298 104.217 34.6526 104.432C35.0166 104.637 35.3993 104.74 35.8006 104.74C36.2113 104.74 36.594 104.637 36.9486 104.432C37.3033 104.227 37.588 103.928 37.8026 103.536C38.0266 103.135 38.1386 102.668 38.1386 102.136ZM43.4409 99.406C43.6743 99.014 43.9823 98.7107 44.3649 98.496C44.7569 98.272 45.2189 98.16 45.7509 98.16V99.812H45.3449C44.7196 99.812 44.2436 99.9707 43.9169 100.288C43.5996 100.605 43.4409 101.156 43.4409 101.94V106H41.8449V98.286H43.4409V99.406ZM46.686 102.108C46.686 101.333 46.8446 100.647 47.162 100.05C47.4886 99.4527 47.9273 98.9907 48.478 98.664C49.038 98.328 49.654 98.16 50.326 98.16C50.9326 98.16 51.46 98.2813 51.908 98.524C52.3653 98.7573 52.7293 99.0513 53 99.406V98.286H54.61V106H53V104.852C52.7293 105.216 52.3606 105.519 51.894 105.762C51.4273 106.005 50.8953 106.126 50.298 106.126C49.6353 106.126 49.0286 105.958 48.478 105.622C47.9273 105.277 47.4886 104.801 47.162 104.194C46.8446 103.578 46.686 102.883 46.686 102.108ZM53 102.136C53 101.604 52.888 101.142 52.664 100.75C52.4493 100.358 52.1646 100.059 51.81 99.854C51.4553 99.6487 51.0726 99.546 50.662 99.546C50.2513 99.546 49.8686 99.6487 49.514 99.854C49.1593 100.05 48.87 100.344 48.646 100.736C48.4313 101.119 48.324 101.576 48.324 102.108C48.324 102.64 48.4313 103.107 48.646 103.508C48.87 103.909 49.1593 104.217 49.514 104.432C49.878 104.637 50.2606 104.74 50.662 104.74C51.0726 104.74 51.4553 104.637 51.81 104.432C52.1646 104.227 52.4493 103.928 52.664 103.536C52.888 103.135 53 102.668 53 102.136Z" fill="black"/>
<defs>
<clipPath id="clip0_356_5336">
<rect width="32" height="13.46" fill="white" transform="translate(24 33.27)"/>
</clipPath>
</defs>
</svg>
